PathFileType	4	(X/Y/Z)	Walk1.trc
DataRate	CameraRate	NumFrames	NumMarkers	Units	OrigDataRate	OrigDataStartFrame	OrigNumFrames
200.000000	200.000000	5	61	mm	200.000000	683	925
Frame#	Times		RCAR		LTH3		RTH2		LBHD		RWRU		LWRU		LUA1		RTH3		LElbow		RFA1		LFA1		LCAR		LElbowM		C7		RTB3		RToe		RPSI		RTB2		RTB1		RMT5		LTH2		RElbow		RLFC		RBHD		RMT1		RTB4		RMMAL		LWRR		T10		RLMAL		LPSI		RBack		RCAL		LLFC		STRN		LASI		LTB3		RUA1		LACR1		RASI		RElbowM		LMMAL		RFHD		LTB1		LTB2		LMFC		LCAL		RTH1		LTB4		RMFC		LFHD		LLMAL		LMT5		RACR1		RTH4		LTH4		CLAV		RWRR		LToe		LMT1		LTH1
			X1	Y1	Z1	X2	Y2	Z2	X3	Y3	Z3	X4	Y4	Z4	X5	Y5	Z5	X6	Y6	Z6	X7	Y7	Z7	X8	Y8	Z8	X9	Y9	Z9	X10	Y10	Z10	X11	Y11	Z11	X12	Y12	Z12	X13	Y13	Z13	X14	Y14	Z14	X15	Y15	Z15	X16	Y16	Z16	X17	Y17	Z17	X18	Y18	Z18	X19	Y19	Z19	X20	Y20	Z20	X21	Y21	Z21	X22	Y22	Z22	X23	Y23	Z23	X24	Y24	Z24	X25	Y25	Z25	X26	Y26	Z26	X27	Y27	Z27	X28	Y28	Z28	X29	Y29	Z29	X30	Y30	Z30	X31	Y31	Z31	X32	Y32	Z32	X33	Y33	Z33	X34	Y34	Z34	X35	Y35	Z35	X36	Y36	Z36	X37	Y37	Z37	X38	Y38	Z38	X39	Y39	Z39	X40	Y40	Z40	X41	Y41	Z41	X42	Y42	Z42	X43	Y43	Z43	X44	Y44	Z44	X45	Y45	Z45	X46	Y46	Z46	X47	Y47	Z47	X48	Y48	Z48	X49	Y49	Z49	X50	Y50	Z50	X51	Y51	Z51	X52	Y52	Z52	X53	Y53	Z53	X54	Y54	Z54	X55	Y55	Z55	X56	Y56	Z56	X57	Y57	Z57	X58	Y58	Z58	X59	Y59	Z59	X60	Y60	Z60	X61	Y61	Z61

683	3.415	-156.69	845.14	282.67	-233.7	615.35	-193.16	-66.86	750.9	145.46	-230.59	1647.6	-131.09	-219.09	868.32	268.06	-83.29	883.26	-329.47	-195.96	1302.6	-323.32	-103.29	639.28	173.59	-198.2	1146.7	-355.48	-261.37	999.15	263.95	-143.17	1004.3	-355.02	-2.9848	866.75	-331.43	-240.34	1129.8	-292.08	-260.19	1519.7	-60.34	-92.809	220.88	95.641	12.835	53.276	142.04	-369.83	1028.8	-3.5008	-105.18	310.82	162.13	-43.114	399.13	111.47	-84.772	44.593	174.39	-156.03	703.52	-181.87	-290.37	1147.6	237.2	-86.281	527.49	169.88	-223.27	1658	10.323	-27.142	51.105	110.2	-66.596	309.16	102.4	-115.08	124.97	57.993	-24.689	916.51	-280.43	-369.44	1298.5	-62.178	-166.39	106.16	128.14	-369.56	1027.4	-81.646	-347.61	1435.9	66.643	-213.2	74.406	67.896	-254.66	511.55	-181.17	-87.703	1255.6	-49.688	-153.86	1040.7	-179.4	-283.39	191.16	-96.682	-245.76	1299.4	203.12	-180.51	1471.9	-220.49	-162.76	1047.7	106.62	-308.39	1130.5	158.85	-325.06	90.002	-56.057	-47.21	1688.9	-22.43	-235.54	371.13	-99.559	-273.98	288.05	-170.83	-251.8	518.59	-51.339	-410.29	29.085	-100.01	-167.13	822.56	169.2	-258.19	284.36	-97.083	-61.501	537.26	42.608	-50.112	1684.4	-98.771	-347.89	70.189	-139.32	-249.71	20.545	-169.56	-195.17	1469.4	106.57	-130.58	730.06	177.77	-222.82	705.52	-208.9	-131.41	1429.3	-52.209	-155.11	883.01	226.89	-151.51	29.567	-93.663	-206.12	38.209	-82.099	-209.53	796.84	-224.53
684	3.42	-153.93	844.35	283.32	-231.56	615.26	-193.1	-62.119	750.25	145.44	-225.38	1647.2	-130.64	-216.19	867.84	268.61	-75.154	883.83	-329.41	-190.24	1302.5	-323.05	-98.524	638.67	173.58	-191.66	1146.5	-355.46	-257.98	998.82	264.34	-135.74	1004.4	-355	5.3079	867.89	-331.38	-233.79	1129.3	-292.13	-254.99	1519.3	-59.928	-79.056	219.69	96.898	31.627	55.185	143.7	-364.97	1028.4	-3.042	-93.913	309.62	162.96	-34.628	399.37	111.71	-65.563	43.958	176.42	-153.26	702.86	-181.64	-286.32	1147.4	237.49	-80.908	526.89	169.76	-218.04	1657.5	10.768	-8.3806	51.853	112	-55.443	308.72	103.14	-98.594	122.96	59.741	-16.749	917.46	-280.35	-364.45	1298.3	-61.663	-149.07	102.98	130.13	-364.81	1027.1	-81.152	-342.44	1435.6	66.999	-195.18	69.667	70.172	-253.31	511.52	-181.16	-82.732	1255.1	-49.463	-149.33	1040.2	-179.13	-282.99	191.11	-96.728	-241.12	1299	203.45	-175.37	1471.6	-220.07	-157.74	1047.1	106.91	-304.12	1130.2	159.09	-324.98	90.074	-56.086	-41.983	1688.4	-21.995	-234.64	370.95	-99.594	-273.4	288.01	-170.87	-250.24	518.59	-51.353	-410.3	29.284	-100.05	-162.54	821.06	169.95	-257.54	284.26	-97.113	-56.911	536.49	42.267	-44.889	1684	-98.344	-347.87	70.315	-139.33	-249.74	20.513	-169.59	-189.96	1468.9	106.97	-125.77	729.48	177.94	-220.02	705.38	-208.71	-126.29	1428.8	-51.881	-152.09	882.23	227.56	-151.51	29.56	-93.681	-206.12	38.216	-82.132	-206.05	796.59	-224.28
685	3.425	-151.14	843.55	283.96	-229.41	615.18	-193.03	-57.47	749.44	145.41	-220.17	1646.8	-130.19	-213.24	867.34	269.17	-67.083	884.36	-329.31	-184.55	1302.2	-322.76	-93.926	637.91	173.54	-185.15	1146.3	-355.4	-254.53	998.47	264.76	-128.36	1004.6	-354.95	13.525	868.98	-331.29	-227.28	1128.9	-292.14	-249.79	1518.9	-59.496	-65.404	218.65	98.13	50.276	57.333	145.24	-360.1	1028	-2.555	-82.71	308.48	163.76	-26.288	399.6	111.9	-46.418	43.572	178.39	-150.5	702.19	-181.4	-282.22	1147.1	237.81	-75.688	526.18	169.61	-212.8	1656.9	11.226	10.249	52.861	113.7	-44.419	308.36	103.84	-82.195	121.17	61.473	-8.8807	918.37	-280.24	-359.45	1298	-61.113	-131.77	100.04	132.15	-360.04	1026.7	-80.628	-337.24	1435.2	67.388	-177.17	65.216	72.485	-251.94	511.5	-181.14	-77.747	1254.5	-49.227	-144.8	1039.7	-178.85	-282.58	191.07	-96.774	-236.44	1298.6	203.81	-170.22	1471.1	-219.63	-152.68	1046.4	107.22	-299.83	1130	159.37	-324.9	90.152	-56.115	-36.749	1687.9	-21.552	-233.72	370.77	-99.63	-272.81	287.97	-170.9	-248.68	518.6	-51.348	-410.31	29.494	-100.08	-158.04	819.6	170.62	-256.87	284.15	-97.138	-52.347	535.6	41.834	-39.66	1683.5	-97.91	-347.85	70.452	-139.34	-249.77	20.483	-169.62	-184.71	1468.4	107.38	-121.1	728.79	178.1	-217.21	705.22	-208.5	-121.16	1428.3	-51.544	-149.04	881.43	228.23	-151.5	29.555	-93.703	-206.12	38.226	-82.167	-202.58	796.33	-224.03
686	3.43	-148.3	842.72	284.6	-227.25	615.09	-192.94	-52.911	748.48	145.35	-214.94	1646.3	-129.72	-210.25	866.82	269.75	-59.081	884.87	-329.18	-178.88	1302	-322.44	-89.486	637.03	173.48	-178.67	1146.1	-355.31	-251.04	998.1	265.19	-121.03	1004.7	-354.86	21.665	870.03	-331.17	-220.78	1128.4	-292.1	-244.57	1518.5	-59.045	-51.875	217.75	99.332	68.745	59.715	146.65	-355.2	1027.6	-2.038	-71.587	307.43	164.56	-18.093	399.83	112.04	-27.383	43.439	180.3	-147.74	701.52	-181.16	-278.08	1146.9	238.15	-70.614	525.38	169.43	-207.55	1656.4	11.698	28.708	54.126	115.31	-33.534	308.08	104.5	-65.911	119.63	63.18	-1.0847	919.23	-280.09	-354.43	1297.6	-60.527	-114.52	97.358	134.16	-355.26	1026.3	-80.073	-332	1434.9	67.811	-159.23	61.07	74.815	-250.55	511.49	-181.11	-72.75	1253.9	-48.981	-140.25	1039.1	-178.56	-282.17	191.03	-96.817	-231.7	1298.1	204.18	-165.08	1470.7	-219.17	-147.6	1045.8	107.55	-295.52	1129.8	159.69	-324.82	90.236	-56.146	-31.506	1687.4	-21.099	-232.78	370.6	-99.667	-272.23	287.95	-170.93	-247.11	518.62	-51.321	-410.31	29.714	-100.1	-153.57	818.19	171.22	-256.2	284.05	-97.16	-47.803	534.59	41.313	-34.426	1683	-97.467	-347.82	70.601	-139.35	-249.81	20.455	-169.65	-179.43	1467.9	107.8	-116.54	727.98	178.24	-214.41	705.06	-208.27	-116.02	1427.7	-51.198	-145.96	880.61	228.9	-151.5	29.552	-93.727	-206.12	38.239	-82.203	-199.11	796.06	-223.76
687	3.435	-145.41	841.88	285.24	-225.08	615	-192.83	-48.439	747.38	145.27	-209.71	1645.8	-129.23	-207.22	866.29	270.35	-51.149	885.34	-329.02	-173.22	1301.7	-322.09	-85.194	636.02	173.4	-172.23	1145.9	-355.19	-247.49	997.73	265.66	-113.76	1004.8	-354.73	29.726	871.03	-331.01	-214.32	1127.8	-292.03	-239.34	1518	-58.575	-38.491	217.01	100.5	86.991	62.317	147.93	-350.28	1027.1	-1.4892	-60.562	306.46	165.33	-10.042	400.06	112.13	-8.5091	43.557	182.14	-144.98	700.84	-180.91	-273.9	1146.6	238.53	-65.676	524.49	169.22	-202.29	1655.8	12.185	46.955	55.64	116.82	-22.8	307.87	105.12	-49.774	118.32	64.85	6.6387	920.04	-279.91	-349.4	1297.3	-59.909	-97.378	94.951	136.17	-350.47	1025.9	-79.485	-326.75	1434.5	68.267	-141.39	57.244	77.138	-249.15	511.48	-181.07	-67.739	1253.3	-48.725	-135.69	1038.6	-178.27	-281.75	191	-96.858	-226.93	1297.7	204.58	-159.93	1470.3	-218.7	-142.48	1045.1	107.89	-291.19	1129.5	160.03	-324.74	90.328	-56.176	-26.257	1686.8	-20.635	-231.81	370.44	-99.702	-271.63	287.94	-170.95	-245.52	518.65	-51.27	-410.3	29.945	-100.11	-149.11	816.82	171.75	-255.51	283.95	-97.177	-43.286	533.49	40.72	-29.187	1682.5	-97.012	-347.79	70.762	-139.36	-249.84	20.428	-169.68	-174.12	1467.3	108.23	-112.09	727.06	178.36	-211.59	704.89	-208.04	-110.86	1427.2	-50.841	-142.85	879.78	229.57	-151.49	29.548	-93.753	-206.12	38.253	-82.239	-195.64	795.78	-223.48
